<?xml version="1.0" encoding="utf-8"?>
<svg version="1.1" id="Слой_1" xmlns="http://www.w3.org/2000/svg" xmlns:xlink="http://www.w3.org/1999/xlink" x="0px" y="0px"
	 viewBox="0 0 512 512" style="enable-background:new 0 0 512 512;" xml:space="preserve">
<style type="text/css">
	.st0{opacity:0.3;enable-background:new    ;}
	.st1{fill:#EAD407;}
	.st2{opacity:0.2;enable-background:new    ;}
	.st3{fill:#FFFFFF;}
</style>
<g id="best">
	<path class="st0" d="M256,13.5C122.1,13.5,13.5,122.1,13.5,256S122.1,498.5,256,498.5S498.5,389.9,498.5,256S389.9,13.5,256,13.5z"
		/>
	<path class="st1" d="M256,0C122.1,0,13.5,108.6,13.5,242.5S122.1,485.1,256,485.1s242.5-108.6,242.5-242.5S389.9,0,256,0z"/>
	<path class="st2" d="M256,92.4c-2.6,0-5.1,0.8-7.3,2.2c-2.1,1.5-3.7,3.5-4.6,5.9l-35.6,92.7l-99.2,5.1c-2.5,0.2-5,1.2-7,2.7
		c-2,1.6-3.5,3.8-4.3,6.2c-0.8,2.5-0.8,5.1,0,7.5c0.7,2.4,2.1,4.6,4,6.2l77.1,62.5l-26.9,95.9c-0.8,2.5-0.8,5.1,0,7.5
		c0.9,2.4,2.5,4.5,4.6,5.9c2,1.6,4.5,2.4,7,2.4c2.6,0.1,5.2-0.6,7.3-2.2l83.3-53.9l83.3,53.9c4.3,3,10,3,14.3,0
		c2.1-1.5,3.7-3.5,4.6-5.9c0.7-2.5,0.7-5.1,0-7.5l-26.9-95.9l80.3-62.8c1.8-1.4,3.2-3.2,4-5.4c0.8-2.5,0.8-5.1,0-7.5
		c-0.9-2.4-2.3-4.6-4.3-6.2c-2-1.5-4.5-2.5-7-2.7l-99.2-5.4l-35.6-93.2c-0.9-2.4-2.5-4.5-4.6-5.9C261.1,93.2,258.6,92.4,256,92.4z"
		/>
	<path class="st3" d="M256,79c-2.6-0.1-5.1,0.6-7.3,1.9c-2.1,1.5-3.7,3.5-4.6,5.9l-35.6,93l-99.2,5.1c-2.7,0.6-5.1,1.9-7,3.8
		c-2,1.6-3.5,3.8-4.3,6.2c-0.8,2.5-0.8,5.1,0,7.5c0.7,2.4,2.1,4.6,4,6.2l77.1,60.9l-26.9,95.9c-0.8,2.5-0.8,5.1,0,7.5
		c0.9,2.4,2.5,4.5,4.6,5.9c2,1.6,4.5,2.4,7,2.4c2.6,0.1,5.2-0.6,7.3-2.2l83.3-53.9l83.3,53.9c4.3,3,10,3,14.3,0
		c2.1-1.5,3.7-3.5,4.6-5.9c0.7-2.5,0.7-5.1,0-7.5l-26.9-95.9l80.3-62.2c2-1.6,3.4-3.8,4-6.2c0.8-2.5,0.8-5.1,0-7.5
		c-1-2-2.5-3.8-4.3-5.1c-2-1.5-4.5-2.5-7-2.7l-99.2-5.4L267.9,87c-0.8-2.5-2.4-4.7-4.6-6.2C261.1,79.5,258.6,78.9,256,79z"/>
</g>
</svg>
