<?xml version="1.0" encoding="utf-8"?>
<svg version="1.1" id="Слой_1" xmlns="http://www.w3.org/2000/svg" xmlns:xlink="http://www.w3.org/1999/xlink" x="0px" y="0px"
	 viewBox="0 0 800 800" style="enable-background:new 0 0 800 800;" xml:space="preserve">
<style type="text/css">
	.st0{fill:#84BF67;}
</style>
<path class="st0" d="M420.2,171.2c-17.9-11.6-41.5-5.9-52.7,12.7L134.3,574.1c-11.2,18.7-5.7,43.2,12.3,54.9c6.1,3.9,13.1,6,20.2,6
	h466.4c21.1,0,38.3-17.8,38.3-39.8c0-7.4-2-14.7-5.8-21.1L432.5,183.9C429.4,178.8,425.2,174.4,420.2,171.2L420.2,171.2z
	 M497.4,141.8L730.6,532c33.5,56,17,129.7-36.8,164.6c-18.2,11.8-39.2,18-60.6,18H166.8C103.4,714.6,52,661.1,52,595.1
	c0-22.3,6-44.2,17.3-63.1l233.2-390.2c33.5-56,104.3-73.2,158.1-38.3C475.6,113.1,488.2,126.3,497.4,141.8L497.4,141.8z"/>
</svg>
