<?xml version="1.0" encoding="utf-8"?>
<svg version="1.1" id="WhyareyouhereQuestionMark" xmlns="http://www.w3.org/2000/svg" xmlns:xlink="http://www.w3.org/1999/xlink" x="0px" y="0px"
	 viewBox="0 0 200 200" style="enable-background:new 0 0 200 200;" xml:space="preserve">
<path d="M168.8,96.9V53.1H125v12.5h-11.5c-0.2,0.5-0.4,1.1-0.7,1.6c-2.4,4.7-7.2,7.9-12.8,7.9s-10.5-3.2-12.8-7.9
	c-0.3-0.5-0.5-1-0.7-1.6H75V53.1H31.2v43.8h12.5v50H31.2v43.7H75v-12.5h50v12.5h43.8v-43.7h-12.5v-50H168.8z M43.8,65.6h18.8v18.8
	H43.8V65.6z M62.5,178.1H43.8v-18.7h18.8V178.1z M125,165.6H75v-18.7H56.2v-50H75V78.1h50v18.8h18.8v50H125V165.6z M156.2,178.1
	h-18.8v-18.7h18.8V178.1z M137.5,84.4V65.6h18.8v18.8H137.5z"/>
<path d="M142.5,54c0-0.3-0.1-0.6-0.1-0.9C138.8,33,121.2,17.7,100,17.7S61.2,33,57.6,53.1c0,0.3-0.1,0.6-0.1,0.9
	c-0.4,2.2-0.5,4.5-0.5,6.8c0,1.5,0.2,3.1,0.5,4.8c0.1,0.5,0.2,1,0.3,1.6c0.9,4.2,2.6,8.8,4.8,13.5c2.4,5.3,5.5,10.8,8.8,16.1
	c8,13.1,17.6,25.6,23.4,32.8c2.8,3.4,7.9,3.4,10.6,0c5.8-7.3,15.4-19.7,23.4-32.8c3.3-5.4,6.4-10.9,8.8-16.1
	c2.2-4.8,3.9-9.4,4.8-13.5c0.1-0.5,0.2-1.1,0.3-1.6c0.3-1.7,0.5-3.3,0.5-4.8C143.1,58.5,142.9,56.2,142.5,54z M87.3,54
	c2.4-4.5,7.2-7.6,12.7-7.6s10.2,3.1,12.7,7.6c1.1,2,1.7,4.3,1.7,6.8c0,1.7-0.3,3.3-0.8,4.8c-0.2,0.5-0.4,1.1-0.7,1.6
	c-2.4,4.7-7.2,7.9-12.8,7.9s-10.5-3.2-12.8-7.9c-0.3-0.5-0.5-1-0.7-1.6c-0.5-1.5-0.8-3.1-0.8-4.8C85.6,58.3,86.3,56,87.3,54z"/>
</svg>
