<?xml version="1.0" encoding="utf-8"?>
<svg version="1.1" xmlns="http://www.w3.org/2000/svg" xmlns:xlink="http://www.w3.org/1999/xlink" x="0px" y="0px"
	 viewBox="0 0 512 512" style="enable-background:new 0 0 512 512;" xml:space="preserve">
<style type="text/css">
	.st0{opacity:0.3;enable-background:new    ;}
	.st1{fill:#39BC55;}
	.st2{opacity:0.3;}
	.st3{fill:#FFFFFF;}
	.st4{display:none;fill:#27C135;}
	.st5{display:none;}
</style>
<g id="Слой_1">
	<g id="best">
		<path class="st0" d="M256,13.5C122.1,13.5,13.5,122.1,13.5,256S122.1,498.5,256,498.5S498.5,389.9,498.5,256S389.9,13.5,256,13.5z
			"/>
		<path class="st1" d="M256,0C122.1,0,13.5,108.6,13.5,242.5S122.1,485.1,256,485.1s242.5-108.6,242.5-242.5S389.9,0,256,0z"/>
		<g>
			<g class="st2">
				<path d="M273.3,429.7c-24.6,0-45.4-5-62.6-14.9c-17.2-9.9-30.3-22.9-39.3-39.1c-9-16.1-13.5-33.7-13.5-52.6
					c0-8.9,1.1-17.4,3.3-25.5c2.2-8.1,5-15.8,8.4-23.1c3.4-7.2,6.8-13.8,10.2-19.5c3.4-5.8,6.4-10.4,9.1-14l84.4-117.7
					c1.5-1.5,3.3-3.3,5.3-5.6c2.1-2.2,5.2-3.3,9.3-3.3h23.5c2.7,0,4.8,1,6.4,2.9c1.6,1.9,2.4,4.2,2.4,6.9c0,1.2-0.2,2.3-0.4,3.3
					c-0.3,1-0.7,1.9-1.3,2.4l-64.8,90.6c3.6-1.2,7.6-2,12.2-2.4c4.6-0.4,8.9-0.7,13.1-0.7c16.3,0.3,31.1,3.3,44.4,8.9
					c13.3,5.6,24.8,13.3,34.4,22.9c9.6,9.6,16.9,20.7,22,33.3c5,12.6,7.5,26,7.5,40.2c0,18.6-4.4,36.1-13.3,52.4
					c-8.9,16.3-21.8,29.5-38.8,39.5C318.2,424.7,297.5,429.7,273.3,429.7z M272.8,391.9c12.4,0,24-2.7,34.6-8
					c10.7-5.3,19.3-13.1,26-23.3c6.7-10.2,10-22.7,10-37.5c0-15.1-3.3-27.8-9.8-38c-6.5-10.2-15.2-17.9-26-23.1
					c-10.8-5.2-22.4-7.8-34.9-7.8c-12.4,0-24,2.6-34.6,7.8c-10.7,5.2-19.3,12.9-26,23.1c-6.7,10.2-10,22.9-10,38
					c0,14.8,3.3,27.3,10,37.5c6.7,10.2,15.3,18,26,23.3C248.8,389.3,260.4,391.9,272.8,391.9z"/>
			</g>
		</g>
		<g>
			<g>
				<path class="st3" d="M273.3,416c-24.6,0-45.4-5-62.6-14.9c-17.2-9.9-30.3-22.9-39.3-39.1c-9-16.1-13.5-33.7-13.5-52.6
					c0-8.9,1.1-17.4,3.3-25.5c2.2-8.1,5-15.8,8.4-23.1c3.4-7.2,6.8-13.8,10.2-19.5c3.4-5.8,6.4-10.4,9.1-14l84.4-117.7
					c1.5-1.5,3.3-3.3,5.3-5.6c2.1-2.2,5.2-3.3,9.3-3.3h23.5c2.7,0,4.8,1,6.4,2.9c1.6,1.9,2.4,4.2,2.4,6.9c0,1.2-0.2,2.3-0.4,3.3
					c-0.3,1-0.7,1.9-1.3,2.4l-64.8,90.6c3.6-1.2,7.6-2,12.2-2.4c4.6-0.4,8.9-0.7,13.1-0.7c16.3,0.3,31.1,3.3,44.4,8.9
					c13.3,5.6,24.8,13.3,34.4,22.9c9.6,9.6,16.9,20.7,22,33.3c5,12.6,7.5,26,7.5,40.2c0,18.6-4.4,36.1-13.3,52.4
					c-8.9,16.3-21.8,29.5-38.8,39.5C318.2,411,297.5,416,273.3,416z M272.8,378.3c12.4,0,24-2.7,34.6-8c10.7-5.3,19.3-13.1,26-23.3
					c6.7-10.2,10-22.7,10-37.5c0-15.1-3.3-27.8-9.8-38c-6.5-10.2-15.2-17.9-26-23.1c-10.8-5.2-22.4-7.8-34.9-7.8
					c-12.4,0-24,2.6-34.6,7.8c-10.7,5.2-19.3,12.9-26,23.1c-6.7,10.2-10,22.9-10,38c0,14.8,3.3,27.3,10,37.5
					c6.7,10.2,15.3,18,26,23.3C248.8,375.6,260.4,378.3,272.8,378.3z"/>
			</g>
		</g>
	</g>
	<path class="st4" d="M242,170.1"/>
	<path class="st4" d="M223.1,152.2"/>
</g>
<g id="Слой_2" class="st5">
</g>
</svg>
