<?xml version="1.0" encoding="utf-8"?>
<svg version="1.1" id="Слой_1" xmlns="http://www.w3.org/2000/svg" xmlns:xlink="http://www.w3.org/1999/xlink" x="0px" y="0px"
	 viewBox="0 0 512 512" style="enable-background:new 0 0 512 512;" xml:space="preserve">
<style type="text/css">
	.st0{opacity:0.3;enable-background:new    ;}
	.st1{fill:#39BC55;}
	.st2{opacity:0.3;}
	.st3{fill:#FFFFFF;}
</style>
<g id="best">
	<path class="st0" d="M256,13.5C122.1,13.5,13.5,122.1,13.5,256S122.1,498.5,256,498.5S498.5,389.9,498.5,256S389.9,13.5,256,13.5z"
		/>
	<path class="st1" d="M256,0C122.1,0,13.5,108.6,13.5,242.5S122.1,485.1,256,485.1s242.5-108.6,242.5-242.5S389.9,0,256,0z"/>
	<g id="_x32_">
		<g id="_x32__00000181049134050479991990000002974126205609751959_" class="st2">
			<path d="M168.6,424.2c-3,0-5.4-1-7.3-2.9c-1.9-1.9-2.9-4.4-2.9-7.3v-14.2c0-2.7,0.7-5.6,2.2-8.9c1.5-3.3,4.4-6.8,8.9-10.6
				l94.1-94.1c15.1-12.7,27-23.6,35.7-32.6c8.7-9,14.9-17.7,18.6-26c3.7-8.3,5.5-16.9,5.5-25.7c0-16.9-4.7-30.2-14.2-40.2
				c-9.5-9.9-23.5-14.9-42.2-14.9c-11.8,0-22,2.4-30.6,7.3c-8.6,4.9-15.3,11.5-20.2,20c-4.9,8.4-8.1,18-9.5,28.6
				c-0.6,3.8-2.1,6.5-4.7,8c-2.5,1.5-4.8,2.2-6.9,2.2h-23.1c-2.7,0-4.9-0.8-6.7-2.4c-1.8-1.6-2.7-3.6-2.7-6
				c0.3-11.2,2.7-22.6,7.1-33.9c4.4-11.4,11-21.7,19.7-30.8c8.7-9.2,19.5-16.6,32.4-22.4c12.9-5.8,27.9-8.7,45-8.7
				c23.4,0,42.5,4.2,57.5,12.6c14.9,8.4,26,19.6,33.1,33.5c7.1,13.9,10.6,29.1,10.6,45.7c0,13-2.2,24.9-6.7,35.7
				c-4.4,10.8-10.9,21.3-19.3,31.5c-8.4,10.2-18.9,20.6-31.3,31.3l-85.2,86.5h138.4c3.3,0,5.8,0.9,7.8,2.7c1.9,1.8,2.9,4.3,2.9,7.5
				V414c0,3-1,5.4-2.9,7.3c-1.9,1.9-4.5,2.9-7.8,2.9H168.6z"/>
		</g>
	</g>
	<g>
		<g>
			<path class="st3" d="M168.6,411.5c-3,0-5.4-1-7.3-2.9c-1.9-1.9-2.9-4.4-2.9-7.3v-14.2c0-2.7,0.7-5.6,2.2-8.9
				c1.5-3.3,4.4-6.8,8.9-10.6l94.1-94.1c15.1-12.7,27-23.6,35.7-32.6c8.7-9,14.9-17.7,18.6-26c3.7-8.3,5.5-16.9,5.5-25.7
				c0-16.9-4.7-30.2-14.2-40.2c-9.5-9.9-23.5-14.9-42.2-14.9c-11.8,0-22,2.4-30.6,7.3c-8.6,4.9-15.3,11.5-20.2,20
				c-4.9,8.4-8.1,18-9.5,28.6c-0.6,3.8-2.1,6.5-4.7,8c-2.5,1.5-4.8,2.2-6.9,2.2h-23.1c-2.7,0-4.9-0.8-6.7-2.4
				c-1.8-1.6-2.7-3.6-2.7-6c0.3-11.2,2.7-22.6,7.1-33.9c4.4-11.4,11-21.7,19.7-30.8c8.7-9.2,19.5-16.6,32.4-22.4
				c12.9-5.8,27.9-8.7,45-8.7c23.4,0,42.5,4.2,57.5,12.6c14.9,8.4,26,19.6,33.1,33.5c7.1,13.9,10.6,29.1,10.6,45.7
				c0,13-2.2,24.9-6.7,35.7c-4.4,10.8-10.9,21.3-19.3,31.5c-8.4,10.2-18.9,20.6-31.3,31.3l-85.2,86.5h138.4c3.3,0,5.8,0.9,7.8,2.7
				c1.9,1.8,2.9,4.3,2.9,7.5v18.2c0,3-1,5.4-2.9,7.3c-1.9,1.9-4.5,2.9-7.8,2.9H168.6z"/>
		</g>
	</g>
</g>
</svg>
