<?xml version="1.0" encoding="utf-8"?>
<svg version="1.1" xmlns="http://www.w3.org/2000/svg" xmlns:xlink="http://www.w3.org/1999/xlink" x="0px" y="0px"
	 viewBox="0 0 512 512" style="enable-background:new 0 0 512 512;" xml:space="preserve">
<style type="text/css">
	.st0{opacity:0.3;enable-background:new    ;}
	.st1{fill:#39BC55;}
	.st2{opacity:0.3;}
	.st3{fill:#FFFFFF;}
	.st4{display:none;fill:#27C135;}
	.st5{display:none;}
</style>
<g id="Слой_1">
	<g id="best">
		<path class="st0" d="M256,13.5C122.1,13.5,13.5,122.1,13.5,256S122.1,498.5,256,498.5S498.5,389.9,498.5,256S389.9,13.5,256,13.5z
			"/>
		<path class="st1" d="M256,0C122.1,0,13.5,108.6,13.5,242.5S122.1,485.1,256,485.1s242.5-108.6,242.5-242.5S389.9,0,256,0z"/>
		<g>
			<g class="st2">
				<path d="M202.7,425.2c-2.7,0-4.8-1-6.4-2.9c-1.6-1.9-2.4-4.2-2.4-6.9c0-0.9,0.3-2.2,0.9-4l110.6-258.4H159.6c-3,0-5.4-1-7.3-2.9
					c-1.9-1.9-2.9-4.4-2.9-7.3v-17.8c0-3.3,1-5.8,2.9-7.8c1.9-1.9,4.4-2.9,7.3-2.9h182c3.3,0,5.8,1,7.8,2.9c1.9,1.9,2.9,4.5,2.9,7.8
					v16.4c0,3.9-0.3,7-0.9,9.3c-0.6,2.4-1.5,5-2.7,8L239.1,414.1c-0.9,2.4-2.3,4.8-4.2,7.3c-1.9,2.5-4.7,3.8-8.2,3.8H202.7z"/>
			</g>
		</g>
		<g>
			<g>
				<path class="st3" d="M202.7,411.6c-2.7,0-4.8-1-6.4-2.9c-1.6-1.9-2.4-4.2-2.4-6.9c0-0.9,0.3-2.2,0.9-4l110.6-258.4H159.6
					c-3,0-5.4-1-7.3-2.9c-1.9-1.9-2.9-4.4-2.9-7.3v-17.8c0-3.3,1-5.8,2.9-7.8c1.9-1.9,4.4-2.9,7.3-2.9h182c3.3,0,5.8,1,7.8,2.9
					c1.9,1.9,2.9,4.5,2.9,7.8v16.4c0,3.9-0.3,7-0.9,9.3c-0.6,2.4-1.5,5-2.7,8L239.1,400.5c-0.9,2.4-2.3,4.8-4.2,7.3
					c-1.9,2.5-4.7,3.8-8.2,3.8H202.7z"/>
			</g>
		</g>
	</g>
	<path class="st4" d="M242,170.1"/>
	<path class="st4" d="M223.1,152.2"/>
</g>
<g id="Слой_2" class="st5">
</g>
</svg>
