<?xml version="1.0" encoding="utf-8"?>
<svg version="1.1" id="Слой_1" xmlns="http://www.w3.org/2000/svg" xmlns:xlink="http://www.w3.org/1999/xlink" x="0px" y="0px"
	 viewBox="0 0 512 512" style="enable-background:new 0 0 512 512;" xml:space="preserve">
<style type="text/css">
	.st0{opacity:0.3;enable-background:new    ;}
	.st1{fill:#39BC55;}
	.st2{opacity:0.3;}
	.st3{fill:#FFFFFF;}
</style>
<g id="best">
	<path class="st0" d="M256,13.5C122.1,13.5,13.5,122.1,13.5,256S122.1,498.5,256,498.5S498.5,389.9,498.5,256S389.9,13.5,256,13.5z"
		/>
	<path class="st1" d="M256,0C122.1,0,13.5,108.6,13.5,242.5S122.1,485.1,256,485.1s242.5-108.6,242.5-242.5S389.9,0,256,0z"/>
	<g id="_x32_">
		<g id="_x32__00000103256142338519649500000005948719982778186120_" class="st2">
			<path d="M268.8,428.6c-18.6,0-34.9-2.3-48.8-6.9c-13.9-4.6-25.6-10.7-35.1-18.4c-9.5-7.7-16.6-16.1-21.5-25.3
				c-4.9-9.2-7.5-18.6-7.8-28.4c0-2.7,0.9-4.7,2.7-6.2c1.8-1.5,4-2.2,6.7-2.2h21.7c2.7,0,5,0.6,7.1,1.8c2.1,1.2,3.8,3.7,5.3,7.5
				c3,10.6,8.1,18.9,15.3,24.8c7.2,5.9,15.7,10,25.3,12.2c9.6,2.2,19.3,3.3,29.1,3.3c20.4,0,37-4.9,49.7-14.6
				c12.7-9.8,19.1-24.1,19.1-43c0-19.2-5.8-33-17.3-41.3c-11.5-8.3-27.5-12.4-47.9-12.4h-42.2c-3,0-5.4-0.9-7.3-2.7
				c-1.9-1.8-2.9-4.3-2.9-7.5v-12c0-2.7,0.5-5,1.6-6.9c1-1.9,2.1-3.6,3.3-5.1l86.1-94.1H180.1c-3,0-5.4-0.9-7.3-2.7
				c-1.9-1.8-2.9-4.3-2.9-7.5v-16.9c0-3.3,1-5.8,2.9-7.8c1.9-1.9,4.4-2.9,7.3-2.9h177.1c3.3,0,5.8,1,7.8,2.9
				c1.9,1.9,2.9,4.5,2.9,7.8v16c0,2.1-0.5,3.9-1.6,5.5c-1,1.6-2.1,3.2-3.3,4.7l-85.6,95.4l7.1,0.4c19.5,0.6,36.6,4.1,51.3,10.6
				c14.6,6.5,26,16.2,34.2,29.1c8.1,12.9,12.2,29.1,12.2,48.6c0,19.8-4.9,36.8-14.6,50.8c-9.8,14.1-23.2,24.8-40.4,32.2
				C309.8,424.9,290.4,428.6,268.8,428.6z"/>
		</g>
	</g>
	<g>
		<g>
			<path class="st3" d="M268.8,415.9c-18.6,0-34.9-2.3-48.8-6.9c-13.9-4.6-25.6-10.7-35.1-18.4c-9.5-7.7-16.6-16.1-21.5-25.3
				c-4.9-9.2-7.5-18.6-7.8-28.4c0-2.7,0.9-4.7,2.7-6.2c1.8-1.5,4-2.2,6.7-2.2h21.7c2.7,0,5,0.6,7.1,1.8c2.1,1.2,3.8,3.7,5.3,7.5
				c3,10.6,8.1,18.9,15.3,24.8c7.2,5.9,15.7,10,25.3,12.2c9.6,2.2,19.3,3.3,29.1,3.3c20.4,0,37-4.9,49.7-14.6
				c12.7-9.8,19.1-24.1,19.1-43c0-19.2-5.8-33-17.3-41.3c-11.5-8.3-27.5-12.4-47.9-12.4h-42.2c-3,0-5.4-0.9-7.3-2.7
				c-1.9-1.8-2.9-4.3-2.9-7.5v-12c0-2.7,0.5-5,1.6-6.9c1-1.9,2.1-3.6,3.3-5.1l86.1-94.1H180.1c-3,0-5.4-0.9-7.3-2.7
				c-1.9-1.8-2.9-4.3-2.9-7.5v-16.9c0-3.3,1-5.8,2.9-7.8c1.9-1.9,4.4-2.9,7.3-2.9h177.1c3.3,0,5.8,1,7.8,2.9
				c1.9,1.9,2.9,4.5,2.9,7.8v16c0,2.1-0.5,3.9-1.6,5.5c-1,1.6-2.1,3.2-3.3,4.7l-85.6,95.4l7.1,0.4c19.5,0.6,36.6,4.1,51.3,10.6
				c14.6,6.5,26,16.2,34.2,29.1c8.1,12.9,12.2,29.1,12.2,48.6c0,19.8-4.9,36.8-14.6,50.8c-9.8,14.1-23.2,24.8-40.4,32.2
				C309.8,412.2,290.4,415.9,268.8,415.9z"/>
		</g>
	</g>
</g>
</svg>
