<?xml version="1.0" encoding="utf-8"?>
<svg version="1.1" id="Слой_1" xmlns="http://www.w3.org/2000/svg" xmlns:xlink="http://www.w3.org/1999/xlink" x="0px" y="0px"
	 viewBox="0 0 512 512" style="enable-background:new 0 0 512 512;" xml:space="preserve">
<style type="text/css">
	.st0{opacity:0.3;enable-background:new    ;}
	.st1{fill:#39BC55;}
	.st2{opacity:0.3;}
	.st3{fill:#FFFFFF;}
</style>
<g id="best">
	<path class="st0" d="M256,13.5C122.1,13.5,13.5,122.1,13.5,256S122.1,498.5,256,498.5S498.5,389.9,498.5,256S389.9,13.5,256,13.5z"
		/>
	<path class="st1" d="M256,0C122.1,0,13.5,108.6,13.5,242.5S122.1,485.1,256,485.1s242.5-108.6,242.5-242.5S389.9,0,256,0z"/>
	<g id="_x32_">
		<g id="_x32__00000119810140877135645840000000142096385780165038_" class="st2">
			<path d="M286.6,415.2c-3,0-5.4-1-7.3-2.9c-1.9-1.9-2.9-4.4-2.9-7.3v-63.9H132.6c-3,0-5.4-1-7.3-2.9c-1.9-1.9-2.9-4.4-2.9-7.3
				v-17.8c0-1.2,0.4-3,1.1-5.5c0.7-2.5,2-5.1,3.8-7.8l133.1-187.7c3.5-5,9-7.5,16.4-7.5h32c3,0,5.4,1,7.3,2.9
				c1.9,1.9,2.9,4.4,2.9,7.3v187.7h39.9c3.3,0,5.8,1,7.8,2.9c1.9,1.9,2.9,4.4,2.9,7.3v18.2c0,3-1,5.4-2.9,7.3
				c-1.9,1.9-4.4,2.9-7.3,2.9H319V405c0,3-1,5.4-2.9,7.3c-1.9,1.9-4.4,2.9-7.3,2.9H286.6z M169.9,303.4h106.9V151.2L169.9,303.4z"/>
		</g>
	</g>
	<g>
		<g>
			<path class="st3" d="M285.8,401.4c-3,0-5.4-1-7.3-2.9c-1.9-1.9-2.9-4.4-2.9-7.3v-63.9H131.9c-3,0-5.4-1-7.3-2.9
				c-1.9-1.9-2.9-4.4-2.9-7.3v-17.7c0-1.2,0.4-3,1.1-5.5c0.7-2.5,2-5.1,3.8-7.8L259.7,98.4c3.5-5,9-7.5,16.4-7.5h32
				c3,0,5.4,1,7.3,2.9c1.9,1.9,2.9,4.4,2.9,7.3v187.7h39.9c3.3,0,5.8,1,7.8,2.9c1.9,1.9,2.9,4.4,2.9,7.3v18.2c0,3-1,5.4-2.9,7.3
				c-1.9,1.9-4.4,2.9-7.3,2.9h-40.4v63.9c0,3-1,5.4-2.9,7.3c-1.9,1.9-4.4,2.9-7.3,2.9H285.8z M169.1,289.6h106.9V137.4L169.1,289.6z
				"/>
		</g>
	</g>
</g>
</svg>
