<?xml version="1.0" encoding="utf-8"?>
<svg version="1.1" xmlns="http://www.w3.org/2000/svg" xmlns:xlink="http://www.w3.org/1999/xlink" x="0px" y="0px"
	 viewBox="0 0 512 512" style="enable-background:new 0 0 512 512;" xml:space="preserve">
<style type="text/css">
	.st0{opacity:0.3;enable-background:new    ;}
	.st1{fill:#39BC55;}
	.st2{opacity:0.3;}
	.st3{fill:#FFFFFF;}
	.st4{display:none;fill:#27C135;}
	.st5{display:none;}
</style>
<g id="Слой_1">
	<g id="best">
		<path class="st0" d="M256,20.2c-133.9,0-242.5,108.6-242.5,242.5S122.1,505.2,256,505.2s242.5-108.6,242.5-242.5
			S389.9,20.2,256,20.2z"/>
		<path class="st1" d="M256,6.8C122.1,6.8,13.5,115.3,13.5,249.2S122.1,491.9,256,491.9s242.5-108.6,242.5-242.5S389.9,6.8,256,6.8z
			"/>
		<g>
			<g class="st2">
				<path d="M219.7,425.7c-2.7,0-4.8-1-6.4-2.9c-1.6-1.9-2.4-4.2-2.4-6.9c0-1.5,0.2-2.7,0.7-3.6c0.4-0.9,0.8-1.6,1.1-2.2l67.9-94.6
					c-7.4,1.8-15.4,2.7-24,2.7c-16.6-0.3-31.4-3.3-44.4-8.9c-13-5.6-24.1-13.2-33.3-22.9c-9.2-9.6-16.1-20.5-20.9-32.6
					c-4.7-12.1-7.1-24.9-7.1-38.2c0-13,2.3-25.8,6.9-38.2c4.6-12.4,11.5-23.7,20.9-33.7c9.3-10.1,20.9-18.1,34.9-24.2
					c13.9-6.1,30.3-9.1,49.3-9.1c18.6,0,35,2.9,49.1,8.7c14.1,5.8,25.9,13.6,35.5,23.5c9.6,9.9,16.7,21.1,21.3,33.5
					c4.6,12.4,6.9,25.3,6.9,38.6c0,12.1-1.8,23.2-5.3,33.3c-3.6,10.1-7.8,19.1-12.7,27.1c-4.9,8-9.7,15.4-14.4,22.2l-85.2,119.4
					c-1.2,1.5-2.8,3.3-4.9,5.5c-2.1,2.2-5.2,3.3-9.3,3.3H219.7z M262.8,282.3c12.4,0,23.9-2.7,34.4-8.2
					c10.5-5.5,18.9-13.2,25.1-23.1c6.2-9.9,9.3-21.8,9.3-35.7c0-13.9-3.1-25.8-9.3-35.7c-6.2-9.9-14.6-17.6-25.1-23.1
					c-10.5-5.5-22-8.2-34.4-8.2c-12.1,0-23.4,2.7-33.7,8.2c-10.4,5.5-18.6,13.2-24.9,23.1c-6.2,9.9-9.3,21.8-9.3,35.7
					c0,13.9,3.1,25.8,9.3,35.7c6.2,9.9,14.5,17.6,24.9,23.1C239.4,279.6,250.6,282.3,262.8,282.3z"/>
			</g>
		</g>
		<g>
			<g>
				<path class="st3" d="M219.7,412.1c-2.7,0-4.8-1-6.4-2.9c-1.6-1.9-2.4-4.2-2.4-6.9c0-1.5,0.2-2.7,0.7-3.6
					c0.4-0.9,0.8-1.6,1.1-2.2l67.9-94.6c-7.4,1.8-15.4,2.7-24,2.7c-16.6-0.3-31.4-3.3-44.4-8.9c-13-5.6-24.1-13.2-33.3-22.9
					c-9.2-9.6-16.1-20.5-20.9-32.6c-4.7-12.1-7.1-24.9-7.1-38.2c0-13,2.3-25.8,6.9-38.2c4.6-12.4,11.5-23.7,20.9-33.7
					c9.3-10.1,20.9-18.1,34.9-24.2c13.9-6.1,30.3-9.1,49.3-9.1c18.6,0,35,2.9,49.1,8.7c14.1,5.8,25.9,13.6,35.5,23.5
					c9.6,9.9,16.7,21.1,21.3,33.5c4.6,12.4,6.9,25.3,6.9,38.6c0,12.1-1.8,23.2-5.3,33.3c-3.6,10.1-7.8,19.1-12.7,27.1
					c-4.9,8-9.7,15.4-14.4,22.2l-85.2,119.4c-1.2,1.5-2.8,3.3-4.9,5.5c-2.1,2.2-5.2,3.3-9.3,3.3H219.7z M262.8,268.6
					c12.4,0,23.9-2.7,34.4-8.2c10.5-5.5,18.9-13.2,25.1-23.1c6.2-9.9,9.3-21.8,9.3-35.7c0-13.9-3.1-25.8-9.3-35.7
					c-6.2-9.9-14.6-17.6-25.1-23.1c-10.5-5.5-22-8.2-34.4-8.2c-12.1,0-23.4,2.7-33.7,8.2c-10.4,5.5-18.6,13.2-24.9,23.1
					c-6.2,9.9-9.3,21.8-9.3,35.7c0,13.9,3.1,25.8,9.3,35.7c6.2,9.9,14.5,17.6,24.9,23.1C239.4,265.9,250.6,268.6,262.8,268.6z"/>
			</g>
		</g>
	</g>
	<path class="st4" d="M242,170.1"/>
	<path class="st4" d="M223.1,152.2"/>
</g>
<g id="Слой_2" class="st5">
</g>
</svg>
