<?xml version="1.0" encoding="utf-8"?>
<svg version="1.1" id="Слой_1" xmlns="http://www.w3.org/2000/svg" xmlns:xlink="http://www.w3.org/1999/xlink" x="0px" y="0px"
	 viewBox="0 0 512 512" style="enable-background:new 0 0 512 512;" xml:space="preserve">
<style type="text/css">
	.st0{opacity:0.3;enable-background:new    ;}
	.st1{fill:#39BC55;}
	.st2{display:none;opacity:0.3;}
	.st3{display:inline;}
	.st4{display:none;}
	.st5{display:inline;fill:#FFFFFF;}
	.st6{opacity:0.3;}
	.st7{fill:#FFFFFF;}
</style>
<g id="best">
	<path class="st0" d="M256,13.5C122.1,13.5,13.5,122.1,13.5,256S122.1,498.5,256,498.5S498.5,389.9,498.5,256S389.9,13.5,256,13.5z"
		/>
	<path class="st1" d="M256,0C122.1,0,13.5,108.6,13.5,242.5S122.1,485.1,256,485.1s242.5-108.6,242.5-242.5S389.9,0,256,0z"/>
	<g>
		<g class="st2">
			<path class="st3" d="M259.1,424.2c-3,0-5.4-1-7.3-2.9c-1.9-1.9-2.9-4.4-2.9-7.3V165.5l-73.7,56.8c-2.4,1.8-4.9,2.5-7.5,2.2
				c-2.7-0.3-4.9-1.6-6.7-4l-11.5-14.6c-1.8-2.7-2.4-5.3-2-8c0.4-2.7,1.8-4.9,4.2-6.7l96.7-74.5c2.1-1.5,4-2.4,5.8-2.7
				c1.8-0.3,3.7-0.4,5.8-0.4h22.6c3,0,5.3,1,7.1,2.9c1.8,1.9,2.7,4.4,2.7,7.3V414c0,3-0.9,5.4-2.7,7.3c-1.8,1.9-4.1,2.9-7.1,2.9
				H259.1z"/>
		</g>
	</g>
	<g>
		<g class="st4">
			<path class="st5" d="M259.1,411.5c-3,0-5.4-1-7.3-2.9c-1.9-1.9-2.9-4.4-2.9-7.3V152.8l-73.7,56.8c-2.4,1.8-4.9,2.5-7.5,2.2
				c-2.7-0.3-4.9-1.6-6.7-4l-11.5-14.6c-1.8-2.7-2.4-5.3-2-8c0.4-2.7,1.8-4.9,4.2-6.7l96.7-74.5c2.1-1.5,4-2.4,5.8-2.7
				c1.8-0.3,3.7-0.4,5.8-0.4h22.6c3,0,5.3,1,7.1,2.9c1.8,1.9,2.7,4.4,2.7,7.3v290.2c0,3-0.9,5.4-2.7,7.3c-1.8,1.9-4.1,2.9-7.1,2.9
				H259.1z"/>
		</g>
	</g>
	<path class="st6" d="M396,198.1L242.8,358.2c-6.5,6.8-15.2,10.6-24.4,10.6c-9.2,0-17.9-3.7-24.4-10.6L116,276.6
		c-6.5-6.8-10.1-15.9-10.1-25.5c0-9.6,3.6-18.7,10.1-25.5c6.5-6.8,15.2-10.6,24.4-10.6s17.9,3.7,24.4,10.6l53.7,56.1l128.8-134.6
		c6.5-6.8,15.2-10.6,24.4-10.6s17.9,3.7,24.4,10.6C409.4,161.2,409.4,184.1,396,198.1z"/>
	<path class="st7" d="M396,184.1L242.8,344.2c-6.5,6.8-15.2,10.6-24.4,10.6c-9.2,0-17.9-3.7-24.4-10.6L116,262.6
		c-6.5-6.8-10.1-15.9-10.1-25.5c0-9.6,3.6-18.7,10.1-25.5c6.5-6.8,15.2-10.6,24.4-10.6s17.9,3.7,24.4,10.6l53.7,56.1l128.8-134.6
		c6.5-6.8,15.2-10.6,24.4-10.6s17.9,3.7,24.4,10.6C409.4,147.2,409.4,170.1,396,184.1z"/>
</g>
</svg>
