<?xml version="1.0" encoding="utf-8"?>
<svg version="1.1" xmlns="http://www.w3.org/2000/svg" xmlns:xlink="http://www.w3.org/1999/xlink" x="0px" y="0px"
	 viewBox="0 0 512 512" style="enable-background:new 0 0 512 512;" xml:space="preserve">
<style type="text/css">
	.st0{opacity:0.3;enable-background:new    ;}
	.st1{fill:#39BC55;}
	.st2{opacity:0.3;}
	.st3{fill:#FFFFFF;}
	.st4{display:none;fill:#27C135;}
	.st5{display:none;}
</style>
<g id="Слой_1">
	<g id="best">
		<path class="st0" d="M256,13.5C122.1,13.5,13.5,122.1,13.5,256S122.1,498.5,256,498.5S498.5,389.9,498.5,256S389.9,13.5,256,13.5z
			"/>
		<path class="st1" d="M256,0C122.1,0,13.5,108.6,13.5,242.5S122.1,485.1,256,485.1s242.5-108.6,242.5-242.5S389.9,0,256,0z"/>
		<g>
			<g class="st2">
				<path d="M258.3,416.6c-17.2,0-32.9-2.2-47.3-6.4c-14.4-4.3-26.6-10.5-36.9-18.6c-10.2-8.1-18.1-18-23.8-29.5
					c-5.6-11.5-8.4-24.6-8.4-39.1c0-18.1,4.4-33.6,13.1-46.6c8.7-13,20.3-22.9,34.9-29.7c-11.5-6.8-20.6-15.7-27.1-26.6
					c-6.5-10.9-9.8-24-9.8-39.1c0-17.8,4.4-32.8,13.1-45.1c8.7-12.3,21-21.8,36.9-28.6c15.8-6.8,34.3-10.2,55.3-10.2
					c20.7,0,39,3.3,54.8,10c15.8,6.7,28.1,16.2,36.9,28.6c8.7,12.4,13.1,27.4,13.1,44.8c0,15.1-3.3,28.2-9.8,39.3
					c-6.5,11.1-15.4,20.1-26.6,26.9c14.5,6.8,26.1,16.7,34.9,29.7c8.7,13,13.1,28.6,13.1,46.6c0,19.2-4.9,35.9-14.7,50
					c-9.8,14.1-23.4,24.9-40.8,32.4C301.7,412.8,281.4,416.6,258.3,416.6z M258.3,381.1c13.6,0,25.9-2.4,36.9-7.1
					c10.9-4.7,19.7-11.5,26.2-20.2c6.5-8.7,9.8-19,9.8-30.9c0-12.1-3.3-22.4-9.8-30.9c-6.5-8.4-15.2-14.9-26.2-19.5
					c-11-4.6-23.2-6.9-36.9-6.9c-13.6,0-26,2.3-37.1,6.9c-11.1,4.6-19.9,11.1-26.4,19.5c-6.5,8.4-9.8,18.7-9.8,30.9
					c0,11.8,3.3,22.1,9.8,30.9c6.5,8.7,15.3,15.5,26.4,20.2C232.4,378.7,244.7,381.1,258.3,381.1z M258.3,230.5
					c11.2,0,21.7-2.1,31.3-6.2c9.6-4.1,17.3-9.8,23.1-16.9c5.8-7.1,8.7-15.7,8.7-25.8c0-10.1-2.7-18.8-8.2-26.2
					c-5.5-7.4-13-13.1-22.6-17.1c-9.6-4-20.4-6-32.2-6c-11.8,0-22.6,2-32.2,6c-9.6,4-17.2,9.7-22.9,17.1c-5.6,7.4-8.4,16.1-8.4,26.2
					c0,10.4,2.8,19.2,8.4,26.4c5.6,7.3,13.2,12.8,22.9,16.6C235.8,228.6,246.5,230.5,258.3,230.5z"/>
			</g>
		</g>
		<g>
			<g>
				<path class="st3" d="M258.3,402.9c-17.2,0-32.9-2.2-47.3-6.4c-14.4-4.3-26.6-10.5-36.9-18.6c-10.2-8.1-18.1-18-23.8-29.5
					c-5.6-11.5-8.4-24.6-8.4-39.1c0-18.1,4.4-33.6,13.1-46.6c8.7-13,20.3-22.9,34.9-29.7c-11.5-6.8-20.6-15.7-27.1-26.6
					c-6.5-10.9-9.8-24-9.8-39.1c0-17.8,4.4-32.8,13.1-45.1c8.7-12.3,21-21.8,36.9-28.6c15.8-6.8,34.3-10.2,55.3-10.2
					c20.7,0,39,3.3,54.8,10c15.8,6.7,28.1,16.2,36.9,28.6c8.7,12.4,13.1,27.4,13.1,44.8c0,15.1-3.3,28.2-9.8,39.3
					c-6.5,11.1-15.4,20.1-26.6,26.9c14.5,6.8,26.1,16.7,34.9,29.7c8.7,13,13.1,28.6,13.1,46.6c0,19.2-4.9,35.9-14.7,50
					c-9.8,14.1-23.4,24.9-40.8,32.4C301.7,399.1,281.4,402.9,258.3,402.9z M258.3,367.4c13.6,0,25.9-2.4,36.9-7.1
					c10.9-4.7,19.7-11.5,26.2-20.2c6.5-8.7,9.8-19,9.8-30.9c0-12.1-3.3-22.4-9.8-30.9c-6.5-8.4-15.2-14.9-26.2-19.5
					c-11-4.6-23.2-6.9-36.9-6.9c-13.6,0-26,2.3-37.1,6.9c-11.1,4.6-19.9,11.1-26.4,19.5c-6.5,8.4-9.8,18.7-9.8,30.9
					c0,11.8,3.3,22.1,9.8,30.9c6.5,8.7,15.3,15.5,26.4,20.2C232.4,365,244.7,367.4,258.3,367.4z M258.3,216.9
					c11.2,0,21.7-2.1,31.3-6.2c9.6-4.1,17.3-9.8,23.1-16.9c5.8-7.1,8.7-15.7,8.7-25.8c0-10.1-2.7-18.8-8.2-26.2
					c-5.5-7.4-13-13.1-22.6-17.1c-9.6-4-20.4-6-32.2-6c-11.8,0-22.6,2-32.2,6c-9.6,4-17.2,9.7-22.9,17.1c-5.6,7.4-8.4,16.1-8.4,26.2
					c0,10.4,2.8,19.2,8.4,26.4c5.6,7.3,13.2,12.8,22.9,16.6C235.8,214.9,246.5,216.9,258.3,216.9z"/>
			</g>
		</g>
	</g>
	<path class="st4" d="M242,170.1"/>
	<path class="st4" d="M223.1,152.2"/>
</g>
<g id="Слой_2" class="st5">
</g>
</svg>
