<?xml version="1.0" encoding="utf-8"?>
<svg version="1.1" xmlns="http://www.w3.org/2000/svg" xmlns:xlink="http://www.w3.org/1999/xlink" x="0px" y="0px"
	 viewBox="0 0 512 512" style="enable-background:new 0 0 512 512;" xml:space="preserve">
<style type="text/css">
	.st0{opacity:0.3;enable-background:new    ;}
	.st1{fill:#39BC55;}
	.st2{opacity:0.3;}
	.st3{fill:#FFFFFF;}
	.st4{display:none;fill:#27C135;}
	.st5{display:none;}
</style>
<g id="Слой_1">
	<g id="best">
		<path class="st0" d="M256,13.5C122.1,13.5,13.5,122.1,13.5,256S122.1,498.5,256,498.5S498.5,389.9,498.5,256S389.9,13.5,256,13.5z
			"/>
		<path class="st1" d="M256,0C122.1,0,13.5,108.6,13.5,242.5S122.1,485.1,256,485.1s242.5-108.6,242.5-242.5S389.9,0,256,0z"/>
		<g>
			<g class="st2">
				<path d="M266.2,429.7c-23.4,0-43.1-4.1-59.3-12.2c-16.1-8.1-28.4-18.7-36.9-31.7c-8.4-13-13-26.8-13.5-41.3
					c-0.3-2.7,0.4-4.7,2.2-6.2c1.8-1.5,4-2.2,6.7-2.2h24c2.7,0,5,0.6,7.1,1.8c2.1,1.2,3.7,3.7,4.9,7.5c3,11,7.8,19.9,14.4,26.9
					c6.7,7,14.4,12,23.1,15.1c8.7,3.1,17.8,4.7,27.3,4.7c12.7,0,24.3-2.6,34.9-7.8c10.5-5.2,18.9-12.9,25.1-23.1s9.3-22.6,9.3-37.1
					c0-13.3-3-24.8-9.1-34.4c-6.1-9.6-14.4-17-24.9-22.2c-10.5-5.2-22.3-7.8-35.3-7.8c-9.8,0-17.8,1.2-24,3.6
					c-6.2,2.4-11.5,5.2-15.8,8.4c-4.3,3.3-8.1,6.1-11.5,8.4c-3.4,2.4-7.2,3.6-11.3,3.6h-23.1c-2.7,0-5-1-7.1-2.9
					c-2.1-1.9-3-4.2-2.7-6.9l14.2-148.3c0.3-3.6,1.4-6.3,3.3-8.2c1.9-1.9,4.5-2.9,7.8-2.9h155c3,0,5.4,1,7.3,2.9
					c1.9,1.9,2.9,4.4,2.9,7.3V142c0,3.3-1,5.8-2.9,7.5c-1.9,1.8-4.4,2.7-7.3,2.7H223.1l-8.4,87.5c4.1-2.7,10.8-5.8,20-9.5
					c9.2-3.7,21.8-5.5,37.7-5.5c14.5,0,28.2,2.2,41.1,6.7s24.3,11,34.4,19.5c10.1,8.6,17.9,19,23.5,31.3c5.6,12.3,8.4,26.4,8.4,42.4
					c0,22.5-5,41.6-14.9,57.3c-9.9,15.7-23.4,27.6-40.4,35.7C307.5,425.6,288.1,429.7,266.2,429.7z"/>
			</g>
		</g>
		<g>
			<g>
				<path class="st3" d="M266.2,416c-23.4,0-43.1-4.1-59.3-12.2c-16.1-8.1-28.4-18.7-36.9-31.7c-8.4-13-13-26.8-13.5-41.3
					c-0.3-2.7,0.4-4.7,2.2-6.2c1.8-1.5,4-2.2,6.7-2.2h24c2.7,0,5,0.6,7.1,1.8c2.1,1.2,3.7,3.7,4.9,7.5c3,11,7.8,19.9,14.4,26.9
					c6.7,7,14.4,12,23.1,15.1c8.7,3.1,17.8,4.7,27.3,4.7c12.7,0,24.3-2.6,34.9-7.8c10.5-5.2,18.9-12.9,25.1-23.1s9.3-22.6,9.3-37.1
					c0-13.3-3-24.8-9.1-34.4c-6.1-9.6-14.4-17-24.9-22.2c-10.5-5.2-22.3-7.8-35.3-7.8c-9.8,0-17.8,1.2-24,3.6
					c-6.2,2.4-11.5,5.2-15.8,8.4c-4.3,3.3-8.1,6.1-11.5,8.4c-3.4,2.4-7.2,3.6-11.3,3.6h-23.1c-2.7,0-5-1-7.1-2.9
					c-2.1-1.9-3-4.2-2.7-6.9l14.2-148.3c0.3-3.6,1.4-6.3,3.3-8.2c1.9-1.9,4.5-2.9,7.8-2.9h155c3,0,5.4,1,7.3,2.9
					c1.9,1.9,2.9,4.4,2.9,7.3v17.3c0,3.3-1,5.8-2.9,7.5c-1.9,1.8-4.4,2.7-7.3,2.7H223.1l-8.4,87.5c4.1-2.7,10.8-5.8,20-9.5
					c9.2-3.7,21.8-5.5,37.7-5.5c14.5,0,28.2,2.2,41.1,6.7s24.3,11,34.4,19.5c10.1,8.6,17.9,19,23.5,31.3c5.6,12.3,8.4,26.4,8.4,42.4
					c0,22.5-5,41.6-14.9,57.3c-9.9,15.7-23.4,27.6-40.4,35.7C307.5,411.9,288.1,416,266.2,416z"/>
			</g>
		</g>
	</g>
	<path class="st4" d="M242,170.1"/>
	<path class="st4" d="M223.1,152.2"/>
</g>
<g id="Слой_2" class="st5">
</g>
</svg>
